<?xml version="1.0" encoding="UTF-8" standalone="no"?>
<?xml-stylesheet type="text/css" href="index.css" ?>
<!-- Created with Inkscape (http://www.inkscape.org/) -->

<svg
     version="1.1"
     id="svg198"
     width="4637.4551"
     height="5345.0278"
     viewBox="0 0 4637.4551 5345.0278"
     sodipodi:docname="addons.svg"
     xml:space="preserve"
     inkscape:version="1.2.1 (0f2f062aeb, 2022-09-21, custom)"
     inkscape:export-filename="../6c8e8a64/final.svg"
     inkscape:export-xdpi="96"
     inkscape:export-ydpi="96"
     xmlns:inkscape="http://www.inkscape.org/namespaces/inkscape"
     xmlns:sodipodi="http://sodipodi.sourceforge.net/DTD/sodipodi-0.dtd"
     xmlns="http://www.w3.org/2000/svg"
     xmlns:svg="http://www.w3.org/2000/svg"><defs
         id="defs202"><linearGradient
             id="linearGradient8588"
             inkscape:swatch="solid"><stop
                 style="stop-color:#000000;stop-opacity:1;"
                 offset="0"
                 id="stop8586" /></linearGradient></defs><sodipodi:namedview
         id="namedview200"
         pagecolor="#ffffff"
         bordercolor="#000000"
         borderopacity="0.25"
         inkscape:showpageshadow="2"
         inkscape:pageopacity="0.0"
         inkscape:pagecheckerboard="0"
         inkscape:deskcolor="#d1d1d1"
         showgrid="false"
         inkscape:zoom="0.11789947"
         inkscape:cx="1781.1785"
         inkscape:cy="2201.0277"
         inkscape:window-width="1830"
         inkscape:window-height="1016"
         inkscape:window-x="90"
         inkscape:window-y="27"
         inkscape:window-maximized="1"
         inkscape:current-layer="layer4"
         showguides="true"
         shape-rendering="auto" /><g
         inkscape:groupmode="layer"
         id="layer4"
         inkscape:label="female"
         transform="translate(-6111.627,176.15236)">
         <rect
             style="opacity:0;fill:#ffffff;fill-opacity:1;stroke:#000000;stroke-width:10;stroke-linecap:round;stroke-dasharray:none;stroke-opacity:1"
             id="rect8700"
             width="4627.4556"
             height="5335.0278"
             x="6116.627"
             y="-171.15236"
             inkscape:export-filename="../3bb14e5f/female.png"
             inkscape:export-xdpi="96"
             inkscape:export-ydpi="96" />
        <!-- <rect
             style="opacity:0.3;fill:#00ffff;stroke-width:2.8;stroke-dasharray:none"
             id="rect7921"
             width="674.85431"
             height="243.51224"
             x="9861.1787"
             y="2220.3826" /> -->
        <!-- <rect
             style="opacity:0.3;fill:#00ffff;stroke-width:2.82366;stroke-dasharray:none"
             id="rect7925"
             width="892.76569"
             height="237.26137"
             x="6336.4653"
             y="2951.8965" /> -->
        <!-- <rect
             style="opacity:0.34;fill:#00ffff;stroke-width:2.88734;stroke-dasharray:none"
             id="rect7927"
             width="606.9632"
             height="249.47728"
             x="6357.4448"
             y="3911.8889" /> -->
        <!-- <rect
             style="opacity:0.3;fill:#00ffff;stroke-width:2.8;stroke-dasharray:none"
             id="rect7929"
             width="644.47638"
             height="246.2198"
             x="9944.0176"
             y="4088.9993" /> -->
        </g><g
         inkscape:groupmode="layer"
         id="layer5"
         inkscape:label="female og"
         transform="translate(-6111.627,176.15236)">
        <!-- breast -->
        <a href="/?search=Schematic+Breast" target="_blank">
        <path
             style="opacity:0.0;fill:#00ffff"
             d="M 8447.8839,2319.6386 C 8476.9614,2412.6275 8492.928,2436.1454 8532.9149,2475.5237 8628.4857,2551.7762 8728.6843,2574.2743 8830.1851,2581.6461 8938.0384,2575.1405 9029.3618,2546.6744 9085.4716,2471.4257 L 9108.0693,2305.3689 9117.217,2187.6191 C 9106.9259,2145.4669 9099.4441,2103.0537 9068.4672,2062.824 8871.1421,1857.151 8582.2257,1932.0933 8483.1259,2064.6177 8439.6718,2181.3965 8435.9412,2253.9134 8447.8839,2319.6386 Z M9861.18,2220.38h674.85v243.51h-674.85Z"
             id="path6555"
             sodipodi:nodetypes="ccccccccc" /></a>
        <!-- ovary left -->
        <a href="/?search=Schematic+Ovarian" target="_blank">
        <path
             style="opacity:0.0;fill:#00ffff"
             d="M 8151.6442,3981.3386 C 8169.7681,3971.6633 8185.6526,3980.8451 8190.0929,3991.133 8203.9836,3995.9626 8202.5193,4006.1997 8205.2183,4014.9707 8214.453,4018.5829 8210.4637,4023.9626 8212.621,4028.5208 8211.9086,4034.2971 8208.0033,4039.777 8209.009,4041.2177 8211.6027,4044.9335 8207.1617,4057.1748 8202.9875,4059.7823 8200.257,4072.9317 8192.2926,4077.7193 8182.6586,4078.0143 8172.4057,4084.9947 8162.7827,4087.1545 8148.988,4073.3055 8146.8899,4078.3178 8129.102,4080.139 8120.8983,4068.506 8109.9582,4068.7673 8103.157,4060.1707 8099.4293,4044.9962 8099.6843,4033.4665 8102.0853,4026.7866 8106.3433,4024.3031 8100.1029,3998.7126 8112.8048,3997.5758 8121.4224,3991.1663 8133.1015,3979.1173 8140.8331,3982.4977 8151.6442,3981.3386 Z M 8626.6553,4012.9924 C 8630.0494,4002.5238 8634.2941,3994.3296 8640.9098,3992.4753 8642.0023,3984.2051 8651.7629,3982.3266 8660.6047,3978.654 8671.7308,3974.0326 8676.9665,3983.2365 8680.9525,3982.4255 8694.869,3979.594 8713.7962,3990.3339 8710.5536,3991.967 8736.6612,3999.3292 8726.7483,4019.6393 8726.2023,4025.0867 8734.7964,4034.8071 8730.356,4046.1242 8727.9144,4057.1964 8725.0346,4062.5618 8721.4846,4067.5257 8713.2899,4069.7078 8702.8279,4076.7135 8692.5995,4079.1428 8682.6489,4076.1272 8673.1674,4080.5107 8664.0744,4086.0059 8650.8802,4079.7665 8643.7234,4077.9553 8636.392,4078.7502 8629.8432,4067.8629 L 8630.1081,4059.1475 C 8626.5044,4053.1472 8621.0601,4050.4892 8623.2177,4039.3702 8616.4255,4028.8187 8619.4173,4020.4351 8626.6553,4012.9924 Z M6357.44,3911.89h606.96v249.48h-606.96Z"
             id="path6557"
             sodipodi:nodetypes="ccccscccccccc"
             transform="translate(0.27128,-2.14904)" /></a>
        <!-- ovary right -->
        <!-- <a href="https://www.google.com" target="_blank">
        <path
             style="opacity:0.3;fill:#00ffff"
             d="M 8626.6553,4012.9924 C 8630.0494,4002.5238 8634.2941,3994.3296 8640.9098,3992.4753 8642.0023,3984.2051 8651.7629,3982.3266 8660.6047,3978.654 8671.7308,3974.0326 8676.9665,3983.2365 8680.9525,3982.4255 8694.869,3979.594 8713.7962,3990.3339 8710.5536,3991.967 8736.6612,3999.3292 8726.7483,4019.6393 8726.2023,4025.0867 8734.7964,4034.8071 8730.356,4046.1242 8727.9144,4057.1964 8725.0346,4062.5618 8721.4846,4067.5257 8713.2899,4069.7078 8702.8279,4076.7135 8692.5995,4079.1428 8682.6489,4076.1272 8673.1674,4080.5107 8664.0744,4086.0059 8650.8802,4079.7665 8643.7234,4077.9553 8636.392,4078.7502 8629.8432,4067.8629 L 8630.1081,4059.1475 C 8626.5044,4053.1472 8621.0601,4050.4892 8623.2177,4039.3702 8616.4255,4028.8187 8619.4173,4020.4351 8626.6553,4012.9924 Z"
             id="path6559"
             sodipodi:nodetypes="ccsscccccccccc"
             transform="translate(0.27128,-2.14904)" /></a> -->
        <!-- cervix -->
        <a href="/?search=Schematic+Cervical" target="_blank">
        <path
             style="display:inline;opacity:0.0;fill:#00ffff"
             d="M 8435.596,4284.0562 C 8444.6516,4287.5264 8465.345,4276.4327 8484.9299,4255.3316 8484.148,4238.3323 8480.6348,4213.8619 8482.8136,4192.5079 8489.2483,4174.5209 8496.5062,4165.2786 8505.5803,4152.5005 8473.0643,4149.9621 8441.9133,4143.6825 8411.9329,4142.6639 8335.1119,4153.3097 8355.2574,4152.7699 8329.9007,4157.479 8335.6095,4168.1348 8340.5584,4177.5262 8347.3913,4189.8235 8350.1783,4215.3181 8344.2456,4238.4085 8341.3377,4263.3661 8360.3258,4270.9352 8378.2718,4284.1676 8398.3084,4286.0392 Z M9944.02,4089h644.48v246.22h-644.48Z"
             id="path6561"
             sodipodi:nodetypes="cccccccccc" /></a>
        </g><g
         inkscape:groupmode="layer"
         inkscape:label="pancreas"
         id="g204"
         style="display:inline"
         transform="translate(-304.88464,-5479.1279)">
        <!-- pancreas -->
        <a href="/?search=Schematic+Pancreatic" target="_blank">
        <path
             style="display:inline;opacity:0.0;fill:#00ffff;fill-opacity:1"
             d="M 2440.0341,8709.3629 C 2438.8704,8688.965 2458.8987,8674.8742 2462.9187,8676.7242 2464.6918,8670.7134 2469.2925,8665.9682 2478.6425,8665.6069 2482.5399,8654.9238 2492.6305,8647.0549 2504.0896,8653.4449 2513.1064,8645.7434 2521.3742,8643.0097 2529.3215,8645.6317 2547.3878,8635.2518 2569.5665,8633.764 2594.973,8641.4732 2603.0534,8637.0852 2605.7718,8636.1979 2610.3044,8637.9598 2624.0063,8628.0357 2633.785,8634.9467 2644.9176,8636.6698 2646.2622,8625.8752 2685.4486,8619.909 2691.2624,8622.9857 2694.6051,8615.9456 2701.7325,8613.1042 2713.1045,8614.9719 2718.8489,8610.9313 2724.8398,8607.4084 2734.6332,8611.8721 2742.2738,8602.6207 2752.0177,8596.5834 2767.056,8596.6572 2775.9587,8590.1729 2781.5004,8589.763 2784.498,8593.9512 2804.0976,8559.4927 2848.7001,8561.2932 2850.3626,8574.7872 2854.1157,8577.7309 2852.1477,8580.5414 2851.6746,8583.3867 2854.4164,8588.1117 2854.1551,8593.7385 2848.9174,8600.8595 2850.4255,8618.8859 2836.9679,8624.2143 2826.5716,8632.1402 2824.3613,8639.2085 2824.8521,8647.7548 2814.19,8650.1987 2813.7907,8656.5425 2812.7467,8662.978 2803.3275,8665.7372 2803.2946,8677.125 2796.5105,8680.2817 2790.8734,8684.8368 2782.1151,8694.8516 2773.9943,8702.1591 2768.3665,8698.8774 2771.2395,8708.529 2757.9561,8717.9556 2745.432,8717.9829 2748.0491,8725.7506 2728.4528,8734.7859 2719.9923,8732.4218 2714.0371,8737.5957 2708.1224,8742.8035 2690.5053,8738.188 2688.0036,8744.6059 2673.2678,8743.2485 2663.3898,8744.9784 2658.8623,8752.036 2652.5751,8751.062 2646.0224,8748.8762 2637.8343,8752.1937 2610.6257,8752.9201 2609.4017,8749.172 2605.0596,8761.3629 2591.8344,8762.9628 2576.473,8762.0156 2573.7797,8764.5978 2574.1547,8767.3141 2575.1757,8770.0587 2588.6009,8780.3116 2587.143,8789.1149 2584.0849,8797.9255 2589.4569,8798.0339 2587.6412,8802.3548 2587.8238,8805.757 2600.6933,8816.8768 2592.5991,8825.7793 2582.6968,8834.4905 2584.7314,8839.3576 2582.6435,8842.0615 2579.6761,8844.3039 2583.1101,8855.5586 2582.6089,8863.8991 2574.5798,8866.6651 2573.0882,8876.8667 2564.2621,8879.9892 2552.6754,8880.4473 2548.6392,8883.383 2544.6777,8886.7128 2539.4716,8883.4753 2533.9377,8889.5162 2528.5103,8889.3126 2523.1951,8882.5367 2501.6766,8888.7655 2475.6904,8890.218 2474.0968,8872.0001 2469.526,8870.9561 2462.909,8873.9824 2461.8052,8865.2755 2452.1977,8863.6925 2445.2385,8858.9631 2447.0537,8843.809 2444.3087,8840.9362 2443.6115,8838.1582 2444.0703,8835.4335 L 2444.1552,8823.4538 C 2432.3169,8819.88 2418.6202,8813.7707 2426.3127,8794.2173 2421.1927,8789.1965 2418.8742,8783.0206 2427.6971,8772.2507 2426.9373,8765.911 2426.1955,8759.5884 2431.3123,8758.8565 L 2433.5197,8751.2922 C 2430.854,8748.7333 2429.1325,8745.4789 2431.0385,8739.5527 2425.751,8731.0869 2424.7501,8723.6811 2435.0359,8719.0664 2434.9218,8715.4777 2436.9796,8712.3601 2440.0341,8709.3629 Z M529.723 8607.1768h892.7657v237.2614H529.723Z"
             id="path6565"
             sodipodi:nodetypes="cccccccccssccccccccccccccccccccccccccccccc" /></a>
        </g></svg>
