<?xml version="1.0" encoding="UTF-8" standalone="no"?>
<?xml-stylesheet type="text/css" href="index.css" ?>
<!-- Created with Inkscape (http://www.inkscape.org/) -->

<svg
     version="1.1"
     id="svg198"
     width="4637.4551"
     height="5345.0278"
     viewBox="0 0 4637.4551 5345.0278"
     xml:space="preserve"
     xmlns="http://www.w3.org/2000/svg"
     xmlns:svg="http://www.w3.org/2000/svg"><defs
         id="defs202"><linearGradient
             id="linearGradient8588"><stop
                 style="stop-color:#000000;stop-opacity:1;"
                 offset="0"
                 id="stop8586" /></linearGradient></defs><g
         id="layer4"
         style="display:inline"
         transform="translate(-6111.627,176.15236)"><rect
             style="display:inline;opacity:0.0;fill:#ffffff;fill-opacity:1;stroke:#ffffff;stroke-width:10;stroke-linecap:round;stroke-dasharray:none;stroke-opacity:1"
             id="rect8700"
             width="4627.4556"
             height="5335.0278"
             x="6116.627"
             y="-171.15236" /></g><g
         id="layer5"
         style="display:inline"
         transform="translate(-6111.627,176.15236)">
        <!-- breast -->
        <a href="/table?cancer_type=breast%20cancer" target="_blank">
            <path
                style="opacity:0.0;fill:#00ffff"
                d="M 8447.8839,2319.6386 C 8476.9614,2412.6275 8492.928,2436.1454 8532.9149,2475.5237 8628.4857,2551.7762 8728.6843,2574.2743 8830.1851,2581.6461 8938.0384,2575.1405 9029.3618,2546.6744 9085.4716,2471.4257 L 9108.0693,2305.3689 9117.217,2187.6191 C 9106.9259,2145.4669 9099.4441,2103.0537 9068.4672,2062.824 8871.1421,1857.151 8582.2257,1932.0933 8483.1259,2064.6177 8439.6718,2181.3965 8435.9412,2253.9134 8447.8839,2319.6386 Z M9861.18,2220.38h674.85v243.51h-674.85Z"
                id="path6555" />
        </a>
        <!-- bone -->
        <a href="/table?cancer_type=bone%20cancer" target="_blank">
            <path
                style="display:inline;opacity:0.0;fill:#00ffff;stroke:#ffffff;stroke-width:0.001"
                d="M 7977.5802,2916.2461 7970.8035,2858.0962 C 7942.8267,2821.3647 7901.0256,2784.6331 7906.2112,2747.9016 L 7994.3105,2798.1816 7989.6514,2761.8926 C 7941.1661,2725.2789 7899.1181,2690.2067 7878.7436,2653.593 7871.1353,2621.0578 7874.3252,2604.4462 7883.4082,2596.5249 7958.4673,2690.9252 7989.3646,2691.5228 8024.4518,2701.0199 V 2647.6794 C 7959.3612,2610.9937 7896.2728,2570.9126 7853.1254,2497.0147 7839.745,2478.9431 7857.962,2460.8714 7873.8795,2442.7998 7959.6639,2524.7097 8024.5869,2553.98 8081.8448,2563.909 L 8087.351,2510.5684 C 8032.5103,2501.9842 7979.3603,2496.7284 7849.2848,2340.0268 L 7867.9212,2310.296 C 7981.3415,2403.5799 8042.5723,2422.7886 8113.6258,2455.9391 L 8109.8138,2389.9193 C 8025.6916,2366.1048 7941.5693,2342.5446 7857.4471,2235.3024 7844.5856,2198.3077 7872.1227,2204.36 7881.1661,2190.7062 7948.9477,2239.2719 8018.234,2286.6523 8115.6943,2311.8378 L 8116.1179,2240.5714 C 8032.532,2210.4673 7938.203,2193.6707 7872.5742,2141.323 7863.6722,2121.5025 7897.4105,2101.6819 7924.2478,2081.8614 L 8122.8948,2171.0538 8125.8596,2105.9084 C 8047.6266,2092.4968 7969.5698,2082.9941 7888.2457,2000.9762 L 7931.8718,1963.3755 C 7989.8335,1996.5043 8066.7369,2008.2182 8140.6841,2023.2743 L 8142.8018,1967.7477 C 8074.0288,1944.4445 8005.2559,1945.9343 7936.4829,1877.8797 L 7981.3796,1839.8418 C 8044.2068,1889.6312 8107.0341,1890.5958 8169.8613,1907.1733 L 8178.3324,1838.093 C 8108.8284,1824.8719 8032.8534,1827.2371 7990.5636,1748.4681 8001.294,1687.5174 8043.8169,1665.7657 8082.0513,1638.7266 8062.5108,1672.7215 8053.018,1703.753 8066.8034,1727.9189 L 8194.3569,1777.0388 C 8192.963,1747.6145 8202.6699,1734.2328 8212.9933,1721.742 8174.2312,1684.1321 8160.351,1649.7428 8087.4528,1604.0576 8021.8643,1637.0591 7973.8908,1688.2438 7941.7501,1755.7721 7931.0298,1770.7832 7937.022,1785.7944 7943.4443,1800.8055 7917.3328,1833.8501 7889.1401,1866.2234 7875.2303,1903.2041 L 7887.9587,1940.7151 C 7868.8684,1963.3452 7841.8817,1979.3063 7838.8264,2015.4792 7851.0662,2036.4676 7862.516,2058.3224 7887.1116,2065.7593 7852.3332,2081.4263 7830.3402,2102.0425 7827.3904,2130.0302 L 7847.721,2170.2543 7803.6714,2228.4041 7832.4731,2285.2424 7800.7064,2328.0897 C 7802.9374,2357.529 7826.3236,2386.9684 7857.8863,2416.4077 7827.2436,2432.154 7809.0425,2451.4678 7807.0597,2475.432 7800.399,2507.6403 7834.8985,2539.8487 7853.2272,2572.057 L 7833.7437,2615.7788 C 7840.2768,2643.1187 7855.6326,2672.6014 7875.6755,2703.2224 7863.3105,2720.1371 7851.8636,2737.093 7857.4627,2754.814 7873.4948,2822.1962 7927.8589,2884.3648 7977.5802,2916.2461 Z M6361.45,1873.46h580.59v271.98h-580.59Z"
                id="path1132" />
        </a>
        <!-- ovary left + right-->
        <a href="/table?cancer_type=ovarian%20cancer" target="_blank">
            <path
                style="opacity:0.0;fill:#00ffff"
                d="M 8151.6442,3981.3386 C 8169.7681,3971.6633 8185.6526,3980.8451 8190.0929,3991.133 8203.9836,3995.9626 8202.5193,4006.1997 8205.2183,4014.9707 8214.453,4018.5829 8210.4637,4023.9626 8212.621,4028.5208 8211.9086,4034.2971 8208.0033,4039.777 8209.009,4041.2177 8211.6027,4044.9335 8207.1617,4057.1748 8202.9875,4059.7823 8200.257,4072.9317 8192.2926,4077.7193 8182.6586,4078.0143 8172.4057,4084.9947 8162.7827,4087.1545 8148.988,4073.3055 8146.8899,4078.3178 8129.102,4080.139 8120.8983,4068.506 8109.9582,4068.7673 8103.157,4060.1707 8099.4293,4044.9962 8099.6843,4033.4665 8102.0853,4026.7866 8106.3433,4024.3031 8100.1029,3998.7126 8112.8048,3997.5758 8121.4224,3991.1663 8133.1015,3979.1173 8140.8331,3982.4977 8151.6442,3981.3386 Z M 8626.6553,4012.9924 C 8630.0494,4002.5238 8634.2941,3994.3296 8640.9098,3992.4753 8642.0023,3984.2051 8651.7629,3982.3266 8660.6047,3978.654 8671.7308,3974.0326 8676.9665,3983.2365 8680.9525,3982.4255 8694.869,3979.594 8713.7962,3990.3339 8710.5536,3991.967 8736.6612,3999.3292 8726.7483,4019.6393 8726.2023,4025.0867 8734.7964,4034.8071 8730.356,4046.1242 8727.9144,4057.1964 8725.0346,4062.5618 8721.4846,4067.5257 8713.2899,4069.7078 8702.8279,4076.7135 8692.5995,4079.1428 8682.6489,4076.1272 8673.1674,4080.5107 8664.0744,4086.0059 8650.8802,4079.7665 8643.7234,4077.9553 8636.392,4078.7502 8629.8432,4067.8629 L 8630.1081,4059.1475 C 8626.5044,4053.1472 8621.0601,4050.4892 8623.2177,4039.3702 8616.4255,4028.8187 8619.4173,4020.4351 8626.6553,4012.9924 Z M6357.44,3911.89h606.96v249.48h-606.96Z"
                id="path6557"
             transform="translate(0.27128,-2.14904)" />
        </a>
        <!-- blood -->
        <a href="/table?cancer_type=blood%20cancer" target="_blank">
            <path
                style="display:inline;opacity:0.0;fill:#00ffff;stroke:#ffffff;stroke-width:0;stroke-dasharray:none"
                d="M 8624.2185,1605.1851 C 8677.7178,1540.2085 8745.2169,1501.8531 8818.3988,1474.3039 8889.5692,1460.0406 8960.7397,1459.1286 9031.9101,1532.963 9157.4731,1664.2912 9120.6861,1675.6793 9151.8081,1737.2369 9157.6617,1840.4403 9163.8873,1944.4491 9163.3942,2033.9103 9135.2252,2111.8812 9096.3287,2169.9858 9058.1593,2229.4368 9039.1929,2243.1228 9031.5879,2209.7367 9023.9533,2176.4729 9016.8498,2184.9152 9008.1563,2194.3086 9021.7464,2241.3966 9035.1713,2251.5921 9048.5963,2257.1462 9062.0212,2256.7732 9053.1489,2288.8655 9045.5405,2324.9718 9051.1745,2403.1383 9056.8755,2432.3575 9062.5765,2436.1172 9068.2775,2449.8379 9059.1131,2402.1136 9068.4535,2343.0608 9080.2441,2282.5079 9089.1621,2213.2872 9127.515,2173.3858 9171.447,2083.6456 9192.6616,2396.1176 9233.3179,2623.6059 9246.3586,2765.1289 L 9311.0293,2762.3643 C 9289.6602,2709.2269 9279.1466,2615.8926 9265.2375,2535.1316 L 9204.5495,1892.84 C 9252.0259,1964.3185 9308.3175,2032.3465 9342.3612,2173.8402 9346.0621,2142.1273 9336.7265,2090.2971 9326.9135,2037.7302 9339.9718,2048.5068 9346.0154,2056.8722 9365.4279,2038.9912 9372.4341,2005.3569 9352.5515,1990.6115 9341.2455,1971.4322 9343.5922,1988.411 9358.4126,2028.3936 9340.7061,2025.201 9323.1078,2017.741 9307.1121,1981.3291 9286.0421,1956.0724 9259.5546,1924.3217 9225.8751,1896.8847 9200.6326,1826.8448 9179.3275,1744.2757 9161.092,1660.8268 9127.8609,1581.6758 9165.1118,1609.2117 9206.2463,1614.6273 9233.3182,1654.5813 9240.298,1670.0301 9244.9693,1687.009 9239.2045,1710.9045 9239.1574,1699.5049 9241.6152,1722.9468 9246.1736,1713.1973 9253.2322,1698.1004 9254.1547,1653.2211 9242.3882,1637.9243 9216.6946,1599.2396 9162.8772,1576.4504 9122.9615,1551.6166 9057.2173,1507.5728 9010.3487,1454.2556 8904.1059,1430.119 8834.2017,1441.7275 8774.8582,1422.6134 8684.047,1495.0427 8631.753,1532.1025 8613.7693,1564.5425 8583.0842,1598.6928 Z M9887.5,1746.8h598.69v210.27h-598.69Z"
                id="path2175" />
        </a>
        <!-- brain -->
        <a href="/table?cancer_type=brain%20cancer" target="_blank">
            <path
                style="display:inline;opacity:0.0;fill:#00ffff;stroke:#ffffff;stroke-width:0;stroke-dasharray:none"
                d="M 8422.6025,177.85353 C 8429.0659,153.02344 8476.2327,154.86544 8483.6151,166.49617 8500.7718,154.17378 8517.5929,163.34947 8534.4436,170.64976 8557.2897,171.36238 8568.9817,179.2919 8576.7619,189.7525 8595.7028,177.83081 8643.9496,218.58946 8661.7321,246.09628 8696.674,274.97587 8711.8407,305.72427 8712.2995,339.72313 8714.7257,365.2895 8716.5331,390.66111 8702.9943,411.20128 8699.131,436.71373 8690.948,461.31771 8660.7726,481.296 8648.8999,489.12514 8637.0274,489.91743 8625.1548,492.28007 L 8593.7657,498.1183 C 8575.5239,537.73657 8547.7008,531.68503 8518.2274,530.03273 8498.4573,527.61671 8479.4502,523.56681 8460.8916,518.55535 8444.9171,546.45182 8453.6926,571.25465 8446.5709,586.17731 8431.7772,590.80085 8417.7266,592.19091 8405.7261,584.65865 8396.5605,583.35132 8404.616,540.84009 8389.6054,517.25251 8364.91,528.74885 8335.1773,532.40918 8301.7528,530.3269 8277.2061,530.70235 8261.918,514.29723 8257.0183,497.42089 8247.0164,496.15453 8244.0467,498.86285 8219.0752,492.55796 8187.3992,491.94949 8146.6123,466.25006 8140.0309,413.55988 8135.7185,411.39987 8120.1705,386.31643 8130.8893,341.58689 8125.5647,313.20305 8144.5144,281.07624 8178.727,246.59588 8201.5688,214.68215 8229.2245,190.98234 8266.0802,186.60772 8278.9752,176.84307 8291.8702,170.54838 8304.7653,171.75151 8332.2116,159.20958 8347.286,157.23029 8357.8278,166.08874 8387.4656,150.13947 8409.0621,159.34225 8422.6025,177.85353 Z M6438.27,220.42h608.09v222.49h-608.09Z"
                id="path530" />
        </a>
        <!-- uterus -->
        <a href="/table?cancer_type=uterine%20cancer" target="_blank">
            <path
                style="display:inline;opacity:0.0;fill:#00ffff;stroke:#ffffff;stroke-width:0.001"
                d="M 8408.3787,4135.9733 8371.6236,4089.6606 C 8363.9256,4080.9274 8363.802,4047.3461 8355.9208,4018.5885 8343.1571,3996.5711 8333.8274,3985.9429 8323.6522,3983.3196 L 8329.6917,3972.2758 C 8369.2274,3986.1345 8385.2691,3986.03 8411.3122,3991.8697 8447.5099,3990.2323 8476.4774,3980.453 8502.5967,3967.4664 L 8510.5344,3979.2228 C 8491.224,3992.4542 8474.3697,4006.2338 8471.8812,4023.2198 8467.448,4044.2466 8465.0763,4075.08 8454.1076,4093.5794 8428.7162,4125.7908 8431.7361,4119.7557 8419.5957,4136.1514 Z M9968.27,3849.35h700.04v214.47h-700.04Z"
                id="path2118" />
        </a>
        <!-- cervix -->
        <a href="/table?cancer_type=cervical%20cancer" target="_blank">
            <path
                style="display:inline;opacity:0.0;fill:#00ffff"
                d="M 8435.596,4284.0562 C 8444.6516,4287.5264 8465.345,4276.4327 8484.9299,4255.3316 8484.148,4238.3323 8480.6348,4213.8619 8482.8136,4192.5079 8489.2483,4174.5209 8496.5062,4165.2786 8505.5803,4152.5005 8473.0643,4149.9621 8441.9133,4143.6825 8411.9329,4142.6639 8335.1119,4153.3097 8355.2574,4152.7699 8329.9007,4157.479 8335.6095,4168.1348 8340.5584,4177.5262 8347.3913,4189.8235 8350.1783,4215.3181 8344.2456,4238.4085 8341.3377,4263.3661 8360.3258,4270.9352 8378.2718,4284.1676 8398.3084,4286.0392 Z M9944.02,4089h644.48v246.22h-644.48Z"
                id="path6561" />
        </a>
        <!-- text breast -->
        <!-- <rect
             style="opacity:0.3;fill:#00ffff;stroke-width:2.8;stroke-dasharray:none"
             id="rect7921"
             width="674.85431"
             height="243.51224"
             x="9861.1787"
             y="2220.3826" /> -->
        <!-- text blood -->
        <!-- <rect
             style="display:inline;opacity:0.3;fill:#00ffff;fill-opacity:1;stroke:#000000;stroke-width:0;stroke-linecap:round;stroke-dasharray:none;stroke-opacity:1"
             id="rect9815-2-1"
             width="598.68646"
             height="210.26549"
             x="9887.4961"
             y="1746.7969" /> -->
        <!-- text uterus -->
        <!-- <rect
             style="display:inline;opacity:0.3;fill:#00ffff;fill-opacity:1;stroke:#000000;stroke-width:0;stroke-linecap:round;stroke-dasharray:none;stroke-opacity:1"
             id="rect9815-2-1-7"
             width="700.03937"
             height="214.46809"
             x="9968.2744"
             y="3849.3521" /> -->
        <!-- text ovary -->
        <!-- <rect
             style="opacity:0.3;fill:#00ffff;stroke-width:2.88734;stroke-dasharray:none"
             id="rect7927"
             width="606.9632"
             height="249.47728"
             x="6357.4448"
             y="3911.8889" /> -->
        <!-- text brain -->
        <!-- <rect
             style="display:inline;opacity:0.3;fill:#00ffff;fill-opacity:1;stroke:#000000;stroke-width:0;stroke-linecap:round;stroke-dasharray:none;stroke-opacity:1"
             id="rect9815-2-8"
             width="608.09119"
             height="222.49471"
             x="6438.2695"
             y="220.42487" /> -->
        <!-- text bone -->
        <!-- <rect
             style="display:inline;opacity:0.3;fill:#00ffff;fill-opacity:1;stroke:#000000;stroke-width:0;stroke-linecap:round;stroke-dasharray:none;stroke-opacity:1"
             id="rect9815-2-7"
             width="580.59021"
             height="271.97662"
             x="6361.4458"
             y="1873.4556" /> -->
        <!-- text cervix -->
        <!-- <rect
             style="opacity:0.3;fill:#00ffff;stroke-width:2.8;stroke-dasharray:none"
             id="rect7929"
             width="644.47638"
             height="246.2198"
             x="9944.0176"
             y="4088.9993" /> -->
    </g>
</svg>
